# xmcd
#
# Track frame offsets:
#	150
#	15952
#	30987
#	47972
#	67235
#	86755
#	107547
#	126397
#	148822
#	163427
#	178792
#	192817
#	212445
#
# Disc length: 3078 seconds
#
# Revision: 1
# Processed by: cddbd v1.5.1PL0 Copyright (c) Steve Scherf et al.
# Submitted via: EasyCDDAExtractor 6.0.0.1
#
DISCID=ba0c040d
DTITLE=Fuzz Townshend - Far In
DYEAR=1999
DGENRE=Big-Beat
TTITLE0=Test Card
TTITLE1=Original Boom (with Ranking Roger)
TTITLE2=I Have Seen The Light
TTITLE3=Smash It
TTITLE4=Bus (with Noel)
TTITLE5=Riviera
TTITLE6=Summertime
TTITLE7=Boogie Too
TTITLE8=Get Yerself (with Michael Valentine West)
TTITLE9=My Day (with Noel)
TTITLE10=Outside Wide
TTITLE11=Tasty Big Ed
TTITLE12=Far In
EXTD=YEAR: 1999
EXTT0=
EXTT1=
EXTT2=
EXTT3=
EXTT4=
EXTT5=
EXTT6=
EXTT7=
EXTT8=
EXTT9=
EXTT10=
EXTT11=
EXTT12=
PLAYORDER=
